# xmcd
#
# Track frame offsets: 
#        150
#        9441
#        19135
#        28754
#        41481
#        47392
#        59962
#        68472
#        77998
#        87127
#        89857
#        101567
#        113177
#        128725
#        137684
#        150218
#        168766
#        179676
#        192282
#        199917
#        208899
#
# Disc length: 2905 seconds
#
# Revision: 2
# Processed by: cddbd v1.5.1PL2 Copyright (c) Steve Scherf et al.
# Submitted via: ExactAudioCopy v0.95b3
#
DISCID=1f0b5715
DTITLE=Ferlin Husky - Feelin' Better All Over
DYEAR=2000
DGENRE=Country
TTITLE0=If You Be My Baby
TTITLE1=I'm Sittin' on Top of the World
TTITLE2=I Feel Better All Over
TTITLE3=Missing Persons
TTITLE4=comedy chat with Simon Crum and Red Foley
TTITLE5=Homesick
TTITLE6=I Wouldn't Treat a Dog like You're Treating Me
TTITLE7=Cuzz You're So Sweet [Simon Crum]
TTITLE8=Funny Honey
TTITLE9=comedy chat with George Morgan
TTITLE10=Gone
TTITLE11=Don't Walk Away from Me
TTITLE12=Make Me Live Again
TTITLE13=This Moment of Love
TTITLE14=Lonesome Whistle
TTITLE15=comedy imitations feat. Simon Crum
TTITLE16=(I Love You) For Sentimental Reasons
TTITLE17=The Kingdom of Love
TTITLE18=Ooh I Want You [Simon Crum]
TTITLE19=Terrific Together
TTITLE20=My Best Girl
EXTD=Ferlin Husky [AKA, Simon Crum] (b. 1925-12-03): vocals, guitar\nC
EXTD=D: Jasmine Records JASMCD 3504 (2000-04-18), UPC 604988350425.
EXTT0=
EXTT1=
EXTT2=
EXTT3=
EXTT4=
EXTT5=
EXTT6=
EXTT7=
EXTT8=
EXTT9=
EXTT10=
EXTT11=
EXTT12=
EXTT13=
EXTT14=
EXTT15=(a) Ernest Tubb: Answer the Phone\n(b) Webb Pierce: More and Mo
EXTT15=re\n(c) Red Foley and Kitty Wells: You and Me\n(d) Roy Acuff sing
EXTT15=s Rock 'n' Roll: Houng Dog
EXTT16=
EXTT17=
EXTT18=
EXTT19=
EXTT20=
PLAYORDER=
